<?xml version="1.0" encoding="iso-8859-1"?>
<!-- Generator: Adobe Illustrator 18.1.1, SVG Export Plug-In . SVG Version: 6.00 Build 0)  -->
<svg version="1.1" id="Capa_1" xmlns="http://www.w3.org/2000/svg" xmlns:xlink="http://www.w3.org/1999/xlink" x="0px" y="0px"
	 viewBox="0 0 13.33 13.33" style="enable-background:new 0 0 13.33 13.33;" xml:space="preserve">
<g>
	<path style="fill:#030104;" d="M12.479,0H0.852c-0.47,0-0.851,0.381-0.851,0.851v11.627c0,0.469,0.381,0.852,0.851,0.852h11.626
		c0.47,0,0.851-0.383,0.851-0.852V0.851C13.329,0.381,12.949,0,12.479,0z M3.957,7.726c0.281,0,0.5-0.047,0.678-0.117l0.141,0.873
		c-0.21,0.094-0.608,0.172-1.061,0.172c-1.232,0-2.02-0.748-2.02-1.95c0-1.114,0.764-2.027,2.184-2.027
		c0.312,0,0.656,0.055,0.905,0.148L4.597,5.706C4.457,5.643,4.246,5.59,3.934,5.59c-0.624,0-1.03,0.444-1.022,1.068
		C2.912,7.358,3.38,7.726,3.957,7.726z M6.448,8.653c-0.5,0-0.944-0.109-1.233-0.266l0.211-0.85C5.644,7.67,6.097,7.826,6.448,7.826
		c0.358,0,0.506-0.125,0.506-0.32S6.838,7.218,6.392,7.069C5.604,6.804,5.3,6.376,5.309,5.923c0-0.71,0.608-1.248,1.552-1.248
		c0.444,0,0.842,0.102,1.075,0.219l-0.21,0.819C7.555,5.618,7.227,5.494,6.899,5.494c-0.288,0-0.451,0.116-0.451,0.312
		c0,0.18,0.147,0.273,0.615,0.437C7.789,6.493,8.092,6.859,8.1,7.421C8.1,8.13,7.538,8.653,6.448,8.653z M9.834,8.653
		c-0.5,0-0.944-0.109-1.233-0.266l0.211-0.85C9.031,7.67,9.483,7.826,9.834,7.826c0.358,0,0.506-0.125,0.506-0.32
		s-0.117-0.288-0.562-0.437C8.99,6.804,8.686,6.376,8.695,5.923c0-0.71,0.607-1.248,1.552-1.248c0.444,0,0.842,0.102,1.075,0.219
		l-0.21,0.819c-0.171-0.095-0.499-0.219-0.827-0.219c-0.288,0-0.451,0.116-0.451,0.312c0,0.18,0.147,0.273,0.615,0.437
		c0.726,0.25,1.029,0.616,1.037,1.178C11.487,8.13,10.925,8.653,9.834,8.653z"/>
</g>
<g>
</g>
<g>
</g>
<g>
</g>
<g>
</g>
<g>
</g>
<g>
</g>
<g>
</g>
<g>
</g>
<g>
</g>
<g>
</g>
<g>
</g>
<g>
</g>
<g>
</g>
<g>
</g>
<g>
</g>
</svg>
